<svg fill="none" height="24" viewBox="0 0 24 24" width="24" xmlns="http://www.w3.org/2000/svg"><path d="m10.6 22.4002-9-9c-.8-.8-.8-2.05 0-2.85l9-9c.8-.800005 2.05-.800005 2.85 0l9 9c.8.8.8 2.05 0 2.85l-9 9c-.8.8-2.1.8-2.85 0z" fill="#4b4b4b"/><path d="m10.8 16.35c0-.15.05-.3.1-.45s.15-.25.25-.35.25-.2.4-.25.3-.1.5-.1.35.05.5.1.3.15.4.25.2.2.25.35.1.3.1.45-.05.3-.1.45-.15.25-.25.35-.25.2-.4.25-.3.1-.5.1-.35-.05-.5-.1-.25-.15-.4-.25c-.1-.1-.2-.2-.25-.35s-.1-.25-.1-.45zm2.1-2.3h-1.8l-.25-7.55h2.3z" fill="#fff"/></svg>